<?xml version="1.0" standalone="no"?>
<!DOCTYPE svg PUBLIC "-//W3C//DTD SVG 20010904//EN"
 "http://www.w3.org/TR/2001/REC-SVG-20010904/DTD/svg10.dtd">
<svg version="1.0" xmlns="http://www.w3.org/2000/svg"
 width="1280.000000pt" height="1280.000000pt" viewBox="0 0 1280.000000 1280.000000"
 preserveAspectRatio="xMidYMid meet">

<g transform="translate(0.000000,1280.000000) scale(0.100000,-0.100000)"
fill="#000000" stroke="none">
<path d="M0 6400 l0 -6400 6400 0 6400 0 0 6400 0 6400 -6400 0 -6400 0 0
-6400z m6850 3801 c513 -76 954 -233 1385 -495 183 -111 301 -198 465 -343
437 -385 753 -833 975 -1382 l50 -125 90 -31 c101 -35 221 -89 405 -184 271
-138 389 -219 540 -371 205 -204 315 -407 341 -626 33 -280 -94 -598 -332
-829 l-93 -90 85 90 c146 155 233 305 295 510 24 79 27 107 28 230 0 133 -2
145 -33 238 -85 249 -283 494 -529 656 -140 91 -480 265 -657 335 -123 49
-155 66 -162 84 -25 69 -172 392 -217 475 -86 158 -95 174 -182 304 -254 380
-688 812 -989 985 -38 22 -94 55 -122 74 -86 56 -350 189 -471 239 -304 124
-659 215 -962 246 -150 16 -574 16 -720 0 -301 -32 -708 -139 -990 -258 -249
-106 -526 -265 -745 -428 -38 -28 -160 -126 -235 -189 -97 -82 -328 -327 -424
-451 -153 -198 -236 -324 -345 -525 -55 -101 -180 -371 -200 -431 -16 -49 -32
-61 -128 -103 -89 -38 -243 -111 -446 -212 -341 -169 -597 -398 -722 -644 -72
-143 -88 -203 -93 -352 -2 -78 1 -164 7 -201 35 -200 148 -410 320 -592 47
-49 64 -70 37 -45 -214 199 -342 422 -382 668 -66 402 176 801 664 1096 117
72 365 195 553 276 168 72 135 33 249 295 179 409 416 759 724 1070 614 617
1381 977 2256 1059 25 2 164 2 310 1 199 -3 298 -9 400 -24z m-65 -205 c487
-64 916 -213 1335 -465 534 -322 984 -821 1260 -1396 43 -88 103 -226 134
-306 l57 -147 107 -37 c228 -80 538 -229 710 -341 233 -151 386 -326 463 -531
32 -84 33 -95 34 -223 0 -117 -3 -144 -24 -205 -49 -143 -115 -249 -230 -369
-273 -283 -702 -491 -1351 -656 -186 -47 -295 -72 -580 -130 -388 -79 -1054
-158 -1630 -192 -271 -15 -1045 -16 -1280 0 -327 22 -594 42 -635 47 -22 3
-116 14 -210 25 -1233 147 -2085 386 -2560 718 -166 116 -360 333 -422 470
-63 142 -81 309 -49 447 53 222 246 447 538 626 164 101 565 285 715 330 24 6
49 19 56 28 8 9 28 58 46 108 174 510 481 969 894 1341 256 230 458 368 776
526 397 199 747 301 1168 341 181 17 508 13 678 -9z m-2993 -4946 c239 -399
507 -708 816 -942 50 -39 92 -72 92 -75 0 -8 -122 80 -240 174 -283 226 -566
566 -711 855 -27 54 -49 101 -49 104 0 19 47 -40 92 -116z m5298 51 c-38 -75
-132 -225 -200 -321 -191 -267 -439 -512 -700 -692 -168 -115 -163 -105 17 31
194 147 361 308 512 495 73 91 246 345 315 466 41 70 69 98 74 75 2 -7 -6 -32
-18 -54z m-5570 -133 c147 -230 195 -300 283 -418 68 -92 157 -192 276 -312
97 -97 168 -172 159 -167 -26 14 -291 279 -339 339 -24 30 -46 57 -49 60 -53
49 -295 405 -359 528 -21 39 -5 24 29 -30z m5744 -45 c-205 -354 -498 -694
-789 -919 -147 -113 -195 -148 -195 -140 0 3 44 38 98 78 108 80 137 105 266
228 213 204 396 428 567 694 74 115 105 150 53 59z m-5019 -50 c23 -26 49 -61
60 -78 52 -82 242 -313 340 -413 60 -61 108 -112 106 -112 -7 0 -144 122 -196
175 -143 145 -211 223 -291 335 -67 94 -77 110 -70 110 2 0 43 -52 91 -115 47
-63 88 -115 91 -115 12 0 -124 188 -168 232 -21 21 -38 40 -38 43 0 14 39 -18
75 -62z m1830 -705 c3 -13 9 -271 13 -575 l7 -551 35 -50 c19 -27 87 -104 151
-170 l116 -120 122 121 c66 67 133 139 149 161 l27 38 5 572 c3 314 9 577 13
584 38 60 47 -83 47 -730 0 -384 -1 -411 -19 -447 -45 -88 -326 -371 -353
-355 -19 12 -272 274 -307 318 -17 21 -35 55 -41 75 -11 41 -14 723 -3 984 5
129 9 167 19 167 8 0 16 -10 19 -22z m-370 -26 c-3 -3 -16 5 -28 17 l-22 23
28 -17 c15 -10 25 -20 22 -23z m-1315 -189 c0 -3 -22 14 -50 37 -27 23 -50 44
-50 47 0 3 23 -14 50 -37 28 -23 50 -44 50 -47z m60 -40 c0 -7 -39 17 -46 28
-3 6 5 3 20 -6 14 -10 26 -19 26 -22z m2028 -470 c-3 -327 -4 -354 -21 -370
-18 -17 -19 -6 -14 397 3 228 9 426 13 440 17 51 25 -115 22 -467z m-140 -70
c-2 -190 -7 -292 -13 -290 -5 2 -13 28 -17 58 -11 97 -9 539 4 633 l13 91 7
-100 c5 -55 7 -232 6 -392z m242 -322 c-11 -22 -125 -140 -155 -162 -11 -7 21
30 70 83 50 53 91 97 93 97 1 1 -2 -8 -8 -18z m4750 -2516 c48 -85 40 -86 99
18 50 89 61 78 61 -58 0 -70 -4 -115 -10 -115 -6 0 -10 37 -10 90 0 50 -3 90
-7 90 -5 0 -22 -26 -39 -58 -40 -75 -57 -74 -103 3 l-36 60 -3 -92 c-2 -74 -6
-93 -17 -93 -12 0 -15 21 -15 115 0 105 2 115 18 115 12 0 33 -25 62 -75z
m945 33 c17 -42 65 -178 65 -185 0 -2 -6 -3 -14 -3 -7 0 -16 14 -19 30 -6 29
-8 30 -66 30 -57 0 -59 -1 -70 -30 -5 -16 -15 -30 -20 -30 -14 0 -15 -5 13 76
43 125 57 154 76 154 12 0 24 -15 35 -42z m155 -73 c0 -96 -3 -115 -15 -115
-12 0 -15 19 -15 115 0 96 3 115 15 115 12 0 15 -19 15 -115z m-640 70 c0 -20
5 -25 25 -25 14 0 25 -4 25 -10 0 -5 -11 -10 -25 -10 -25 0 -26 -2 -23 -57 3
-55 4 -58 31 -61 15 -2 27 -8 27 -13 0 -12 -50 -12 -69 0 -9 6 -16 32 -19 70
-3 43 -8 61 -18 61 -8 0 -14 5 -14 10 0 6 7 10 15 10 9 0 15 9 15 25 0 16 6
25 15 25 9 0 15 -9 15 -25z m-124 -33 c15 -10 34 -47 34 -66 0 -13 -12 -16
-60 -16 -44 0 -60 -4 -60 -14 0 -24 28 -39 65 -33 35 6 48 -6 19 -17 -36 -14
-73 -6 -93 20 -42 54 -11 134 52 134 18 0 37 -4 43 -8z m338 -14 c17 -24 23
-138 7 -138 -5 0 -11 5 -13 11 -3 9 -9 9 -25 0 -45 -23 -93 -8 -93 30 0 29 29
49 71 49 36 0 40 2 37 23 -3 25 -50 36 -73 17 -8 -7 -15 -7 -19 -1 -9 14 23
30 61 31 22 0 37 -7 47 -22z"/>
<path d="M6270 9873 c-146 -9 -365 -36 -474 -59 -320 -67 -672 -200 -951 -359
-672 -384 -1152 -934 -1425 -1635 -33 -85 -66 -166 -73 -179 -10 -21 -44 -36
-192 -86 -219 -75 -319 -117 -495 -206 -253 -128 -402 -234 -518 -369 -131
-153 -185 -283 -186 -445 -1 -87 3 -111 28 -180 159 -432 664 -755 1529 -979
217 -56 588 -132 832 -171 55 -9 125 -20 155 -25 143 -25 515 -70 810 -99 323
-32 911 -54 1265 -47 1089 22 2032 148 2860 381 700 197 1147 478 1321 830 24
50 51 117 59 150 18 70 20 197 4 263 -17 72 -91 220 -143 289 -179 237 -589
468 -1123 634 -87 27 -103 35 -111 58 -189 526 -455 947 -833 1317 -314 307
-669 538 -1069 697 -217 86 -485 157 -725 191 -107 15 -415 38 -465 34 -14 -1
-50 -3 -80 -5z m-1160 -800 c0 -53 16 -69 85 -83 30 -6 55 -15 55 -19 0 -4
-27 -12 -59 -19 -64 -13 -76 -23 -85 -65 -3 -15 -8 -38 -11 -52 -8 -37 -23
-22 -31 32 -8 56 -30 79 -83 88 -22 4 -43 10 -46 14 -2 5 22 15 55 24 64 18
74 29 85 92 4 22 10 44 13 49 9 16 22 -19 22 -61z m2775 -50 c10 -70 19 -81
80 -99 31 -8 53 -19 50 -24 -3 -4 -25 -11 -50 -15 -52 -7 -79 -39 -90 -107 -7
-42 -25 -52 -25 -13 0 48 -29 101 -66 118 -19 10 -43 17 -54 17 -43 0 -26 19
26 30 67 14 94 38 94 84 0 78 24 83 35 9z m-541 -60 c4 -9 0 -23 -9 -32 -13
-14 -17 -14 -30 0 -19 19 -10 49 15 49 10 0 21 -8 24 -17z m-2617 -179 c3 -8
-2 -23 -11 -32 -14 -15 -18 -15 -31 -1 -9 9 -13 23 -9 32 8 21 43 22 51 1z
m1841 -84 c528 -38 1017 -208 1416 -493 147 -104 166 -125 39 -43 -231 151
-595 308 -853 367 -286 66 -769 96 -1040 64 -773 -91 -1470 -481 -1914 -1072
-132 -176 -278 -438 -357 -642 -61 -158 -127 -440 -154 -658 -6 -47 -9 -53
-31 -53 -21 0 -24 5 -24 38 0 74 42 319 80 466 51 199 87 296 182 487 276 559
768 1029 1354 1298 273 125 554 204 819 230 212 22 302 23 483 11z m1822 -35
c0 -18 -5 -25 -19 -25 -11 0 -21 6 -24 13 -7 20 4 37 24 37 14 0 19 -7 19 -25z
m-4086 -231 c21 -20 20 -43 -1 -66 -23 -25 -50 -23 -69 7 -15 23 -15 27 0 50
19 29 47 32 70 9z m1861 -58 c0 -36 -26 -56 -49 -37 -21 18 -20 47 2 60 29 17
47 8 47 -23z m-836 -163 c-53 -38 -223 -199 -260 -247 -75 -100 -81 -107 -86
-102 -6 6 66 104 96 130 52 47 12 29 -91 -40 -110 -75 -184 -115 -325 -180
-48 -21 -73 -29 -73 -20 0 15 112 126 190 189 126 101 312 204 475 263 94 33
116 35 74 7z m3401 -219 c10 -11 11 -23 4 -42 -17 -48 -84 -38 -84 12 0 43 53
63 80 30z m-1292 -22 c4 -26 -13 -52 -34 -52 -22 0 -36 37 -24 61 15 28 54 22
58 -9z m-873 -12 c17 -18 17 -21 1 -45 -18 -27 -54 -33 -74 -13 -17 17 -15 38
5 60 21 23 45 23 68 -2z m-1211 -86 c20 -19 20 -24 0 -52 -25 -36 -74 -23 -74
19 0 21 26 49 45 49 7 0 21 -7 29 -16z m3390 -509 c113 -171 227 -406 284
-585 58 -183 109 -427 112 -535 2 -71 2 -75 -13 -75 -9 0 -19 35 -31 108 -56
339 -182 714 -331 983 -62 113 -151 257 -189 308 -14 19 -26 39 -26 45 0 14
132 -156 194 -249z m-2657 109 c9 -24 -10 -49 -38 -49 -24 0 -36 23 -25 51 7
19 55 18 63 -2z m-977 -140 c0 -27 -282 -319 -332 -345 -57 -29 -62 -26 -54
31 12 93 68 186 143 240 49 35 160 78 206 79 20 1 37 -2 37 -5z m40 -130 c0
-3 -21 -46 -46 -94 -74 -145 -192 -255 -291 -273 -54 -10 -47 11 12 37 75 34
151 109 236 232 60 90 89 121 89 98z m2109 -57 c22 -27 23 -71 2 -104 -17 -27
-27 -33 -56 -33 -45 0 -75 29 -75 73 0 52 24 77 74 77 24 0 49 -6 55 -13z
m611 -12 c0 -19 -20 -29 -32 -17 -8 8 -7 16 2 26 14 17 30 12 30 -9z m-4602
-134 c-184 -93 -335 -222 -393 -336 -40 -80 -43 -186 -7 -255 67 -129 230
-236 492 -323 419 -140 1266 -274 2090 -332 872 -62 2085 -23 2860 90 902 133
1372 277 1556 476 61 67 77 106 82 195 4 76 2 88 -27 149 -21 46 -52 88 -98
134 -80 79 -150 126 -293 198 -116 59 -102 61 30 5 197 -83 341 -196 402 -314
26 -53 32 -77 36 -150 4 -80 2 -93 -22 -142 -68 -139 -223 -249 -488 -347
-331 -122 -1130 -268 -1748 -319 -69 -5 -174 -14 -235 -20 -662 -58 -1604 -54
-2315 10 -325 30 -788 88 -1000 126 -753 135 -1125 262 -1292 443 -81 87 -103
138 -103 236 0 89 24 155 84 229 78 97 234 205 381 265 113 45 117 37 8 -18z
m4967 -281 c0 -8 -10 -16 -22 -18 -22 -3 -32 16 -16 32 12 11 38 2 38 -14z
m-3345 -89 c13 -25 4 -48 -21 -56 -38 -12 -65 35 -37 63 18 18 46 14 58 -7z
m424 -40 c11 -18 -6 -41 -30 -41 -17 0 -24 6 -24 18 0 10 3 22 7 25 9 10 41 8
47 -2z"/>
<path d="M12213 528 c-12 -29 -19 -56 -16 -61 2 -4 23 -5 46 -3 29 2 41 8 39
17 -7 32 -35 99 -42 99 -4 0 -16 -24 -27 -52z"/>
<path d="M11592 508 c-25 -25 -13 -38 33 -38 30 0 45 4 45 13 0 19 -21 37 -45
37 -12 0 -26 -5 -33 -12z"/>
<path d="M11908 438 c-9 -23 3 -38 31 -38 25 0 61 26 61 43 0 13 -88 7 -92 -5z"/>
</g>
</svg>
